<?xml version="1.0" standalone="no"?>
<!DOCTYPE svg PUBLIC "-//W3C//DTD SVG 20010904//EN"
 "http://www.w3.org/TR/2001/REC-SVG-20010904/DTD/svg10.dtd">
<svg version="1.0" xmlns="http://www.w3.org/2000/svg"
 width="100.000000pt" height="100.000000pt" viewBox="0 0 100.000000 100.000000"
 preserveAspectRatio="xMidYMid meet">
<metadata>
Created by potrace 1.11, written by Peter Selinger 2001-2013
</metadata>
<g transform="translate(0.000000,100.000000) scale(0.100000,-0.100000)"
fill="#000000" stroke="none">
<path d="M417 946 c-60 -22 -104 -62 -132 -121 -24 -48 -27 -64 -23 -125 8
-114 79 -240 158 -280 30 -15 37 -24 33 -40 -4 -14 -1 -20 8 -18 10 2 13 -17
14 -84 1 -49 0 -88 -1 -88 -1 0 -16 25 -34 56 -19 35 -29 63 -25 75 4 12 2 19
-6 19 -10 0 -10 3 -1 12 17 17 15 26 -7 33 -27 8 -87 71 -117 121 -45 76 -63
148 -60 234 1 44 2 80 1 80 -1 0 -17 -5 -36 -11 -94 -32 -156 -127 -146 -226
13 -122 147 -261 258 -266 25 -1 39 -7 39 -16 0 -7 6 -11 14 -8 14 6 93 -134
116 -206 13 -43 41 -48 47 -8 3 21 21 66 94 229 14 32 28 51 35 48 7 -3 16 3
19 13 4 12 19 21 46 25 73 12 165 89 215 179 72 132 1 293 -145 326 -67 15
-71 8 -38 -58 60 -122 19 -295 -98 -414 -27 -26 -56 -72 -76 -118 -47 -107
-54 -111 -52 -31 2 94 2 94 13 87 6 -4 10 5 10 19 0 14 5 26 12 26 20 0 77 50
109 96 112 163 88 353 -55 426 -51 26 -139 33 -189 14z"/>
</g>
</svg>
