<?xml version="1.0" standalone="no"?>
<!DOCTYPE svg PUBLIC "-//W3C//DTD SVG 20010904//EN"
 "http://www.w3.org/TR/2001/REC-SVG-20010904/DTD/svg10.dtd">
<svg version="1.0" xmlns="http://www.w3.org/2000/svg"
 width="100.000000pt" height="100.000000pt" viewBox="0 0 100.000000 100.000000"
 preserveAspectRatio="xMidYMid meet">
<metadata>
Created by potrace 1.11, written by Peter Selinger 2001-2013
</metadata>
<g transform="translate(0.000000,100.000000) scale(0.100000,-0.100000)"
fill="#000000" stroke="none">
<path d="M47 913 c-4 -3 -7 -162 -7 -352 l0 -347 113 -62 c63 -34 119 -62 125
-62 7 0 56 25 111 55 55 30 102 55 106 55 4 0 56 -25 117 -55 60 -30 115 -55
121 -55 6 0 57 27 114 61 l103 61 1 92 c1 115 1 563 0 594 -1 12 -6 22 -13 22
-7 0 -54 -25 -104 -55 -51 -30 -97 -55 -102 -55 -5 0 -61 25 -123 56 l-114 56
-45 -23 c-25 -13 -71 -38 -103 -56 -33 -18 -64 -33 -69 -33 -6 0 -55 25 -111
55 -104 57 -109 59 -120 48z m622 -122 l63 -32 82 47 c44 26 84 52 88 58 5 7
8 6 8 -4 3 -71 2 -621 -1 -623 -32 -24 -165 -100 -174 -100 -6 0 -61 24 -121
53 -60 29 -114 53 -119 53 -6 0 -56 -25 -112 -56 l-102 -57 -101 53 -100 52 0
313 c0 171 3 312 6 312 3 0 48 -23 100 -50 l93 -51 88 48 c48 26 97 53 108 59
21 11 44 2 194 -75z"/>
<path d="M398 702 c-30 -4 -41 -23 -32 -57 l6 -23 34 20 c48 28 44 66 -8 60z"/>
<path d="M289 696 c-2 -2 -29 -7 -59 -10 -54 -7 -90 -27 -90 -53 0 -7 9 -13
19 -13 19 0 31 -18 31 -49 0 -9 16 -32 35 -51 27 -26 32 -37 24 -51 -9 -18 6
-59 23 -59 4 0 10 -20 14 -45 11 -76 49 -99 60 -37 4 20 17 55 30 78 l24 40
-27 22 c-15 12 -42 25 -60 28 -46 9 -44 40 6 88 39 38 39 38 19 58 -15 15 -17
23 -9 31 17 17 13 27 -12 27 -13 0 -26 -2 -28 -4z"/>
<path d="M578 670 c-62 -11 -104 -41 -104 -74 0 -30 5 -32 32 -11 42 32 36 12
-8 -28 -62 -55 -70 -87 -29 -116 23 -16 31 -32 36 -65 6 -37 34 -86 50 -86 9
0 61 117 60 135 -2 27 -37 85 -52 85 -7 0 -13 4 -13 9 0 15 35 1 50 -19 13
-18 14 -18 42 2 28 20 30 20 43 2 13 -18 14 -18 21 -1 6 17 7 17 27 0 16 -14
21 -15 25 -4 2 7 15 23 29 34 20 18 23 27 18 58 -6 32 -3 39 15 49 12 7 18 16
14 20 -13 13 -201 20 -256 10z"/>
<path d="M769 405 c-31 -17 -45 -45 -27 -56 6 -4 15 -6 19 -4 3 3 14 -4 24
-15 10 -11 22 -20 26 -20 12 0 21 55 13 84 -7 29 -17 31 -55 11z"/>
</g>
</svg>
